<svg width="32" height="32" viewBox="0 0 32 32" fill="none" xmlns="http://www.w3.org/2000/svg">
<circle cx="16" cy="16" r="15.7" stroke="#C8C8C8" stroke-width="0.6"/>
<g clip-path="url(#clip0_28_355)">
<path d="M15.9999 16.0205C11.7835 16.0205 8.35303 19.451 8.35303 23.6674C8.35303 23.8509 8.50199 23.9999 8.68551 23.9999C8.86904 23.9999 9.018 23.8509 9.018 23.6674C9.018 19.8174 12.1499 16.6854 16 16.6854C19.85 16.6854 22.9819 19.8174 22.9819 23.6674C22.9819 23.8509 23.1309 23.9999 23.3144 23.9999C23.4979 23.9999 23.6469 23.8509 23.6469 23.6674C23.6469 19.4503 20.2164 16.0205 15.9999 16.0205Z" fill="#086CF9"/>
<path d="M16 8C13.9838 8 12.3428 9.64042 12.3428 11.6572C12.3428 13.674 13.9839 15.3144 16 15.3144C18.0161 15.3144 19.6572 13.674 19.6572 11.6572C19.6572 9.64042 18.0161 8 16 8ZM16 14.6495C14.3502 14.6495 13.0077 13.3069 13.0077 11.6572C13.0077 10.0075 14.3502 8.66494 16 8.66494C17.6497 8.66494 18.9922 10.0075 18.9922 11.6572C18.9922 13.3069 17.6497 14.6495 16 14.6495Z" fill="#086CF9"/>
</g>
<defs>
<clipPath id="clip0_28_355">
<rect width="16" height="16" fill="white" transform="translate(8 8)"/>
</clipPath>
</defs>
</svg>
