<svg width="72" height="72" viewBox="0 0 72 72" fill="none" xmlns="http://www.w3.org/2000/svg">
<path d="M66.2344 36.9581C69.461 36.6723 72 33.956 72 30.6562V10.9688C72 7.47942 69.1612 4.64062 65.6719 4.64062H44.7188C41.2294 4.64062 38.3906 7.47942 38.3906 10.9688V19.2656H12.0938C8.60442 19.2656 5.76562 22.1044 5.76562 25.5938V50.9062C5.76562 51.6457 5.8943 52.3554 6.12844 53.0156H3.79688C1.70325 53.0156 0 54.7189 0 56.8125C0 62.628 4.73133 67.3594 10.5469 67.3594H61.4531C67.2687 67.3594 72 62.628 72 56.8125C72 54.7189 70.2967 53.0156 68.2031 53.0156H65.8716C66.1057 52.3554 66.2344 51.6457 66.2344 50.9062V36.9581ZM42.6094 10.9688C42.6094 9.80564 43.5556 8.85938 44.7188 8.85938H65.6719C66.835 8.85938 67.7812 9.80564 67.7812 10.9688V30.6562C67.7812 31.8194 66.835 32.7656 65.6719 32.7656H46.125C45.7296 32.7656 45.3423 32.8767 45.007 33.0862L40.754 35.7445L42.5205 29.8561C42.5794 29.6595 42.6094 29.4553 42.6094 29.25V10.9688ZM61.4531 63.1406H10.5469C7.1993 63.1406 4.45064 60.5277 4.23267 57.2344H67.7673C67.5494 60.5277 64.8007 63.1406 61.4531 63.1406ZM20.1094 37.125C20.1094 35.8068 21.1818 34.7344 22.5 34.7344C23.8182 34.7344 24.8906 35.8068 24.8906 37.125C24.8906 38.4432 23.8182 39.5156 22.5 39.5156C21.1818 39.5156 20.1094 38.4432 20.1094 37.125ZM18.9844 46.125C18.9844 44.8515 20.6272 43.7344 22.5 43.7344C23.5043 43.7344 24.472 44.0477 25.1549 44.594C25.4765 44.8512 26.0156 45.3921 26.0156 46.125V53.0156H18.9844V46.125ZM30.2344 53.0156V46.125C30.2344 44.3011 29.3437 42.5423 27.7903 41.2997C27.7554 41.2718 27.719 41.2456 27.6836 41.2183C28.5751 40.0916 29.1094 38.6699 29.1094 37.125C29.1094 33.4806 26.1444 30.5156 22.5 30.5156C18.8556 30.5156 15.8906 33.4806 15.8906 37.125C15.8906 38.6717 16.4261 40.0947 17.3194 41.222C15.7523 42.4323 14.7656 44.182 14.7656 46.125V53.0156H12.0938C10.9306 53.0156 9.98438 52.0694 9.98438 50.9062V25.5938C9.98438 24.4306 10.9306 23.4844 12.0938 23.4844H38.3906V28.9405L36.7131 34.5322C36.2036 36.2303 36.7851 38.0228 38.1946 39.0983C38.9538 39.6776 39.85 39.9704 40.7505 39.9704C41.5216 39.9704 42.2961 39.7555 42.9896 39.322L46.73 36.9844H62.0156V50.9062C62.0156 52.0694 61.0694 53.0156 59.9062 53.0156H30.2344Z" fill="#086CF9"/>
<path d="M57.375 23.7656H52.875C51.7101 23.7656 50.7656 24.7101 50.7656 25.875C50.7656 27.0399 51.7101 27.9844 52.875 27.9844H57.375C58.5399 27.9844 59.4844 27.0399 59.4844 25.875C59.4844 24.7101 58.5399 23.7656 57.375 23.7656Z" fill="#086CF9"/>
<path d="M49.5 17.8594H60.75C61.9149 17.8594 62.8594 16.9149 62.8594 15.75C62.8594 14.5851 61.9149 13.6406 60.75 13.6406H49.5C48.3351 13.6406 47.3906 14.5851 47.3906 15.75C47.3906 16.9149 48.3351 17.8594 49.5 17.8594Z" fill="#086CF9"/>
</svg>
