<svg width="65" height="62" viewBox="0 0 65 62" fill="none" xmlns="http://www.w3.org/2000/svg">
<path d="M0 6C0 2.68629 2.68629 0 6 0H65V62H0V6Z" fill="#086CF9"/>
<path d="M23.6443 26V15.56L21.6103 16.028V14.624L24.4003 13.4H25.6243V26H23.6443ZM33.2243 26.216C32.0843 26.216 31.1003 25.946 30.2723 25.406C29.4563 24.854 28.8263 24.092 28.3823 23.12C27.9503 22.136 27.7343 20.996 27.7343 19.7C27.7343 18.404 27.9503 17.27 28.3823 16.298C28.8263 15.314 29.4563 14.552 30.2723 14.012C31.1003 13.46 32.0843 13.184 33.2243 13.184C34.3643 13.184 35.3423 13.46 36.1582 14.012C36.9743 14.552 37.5983 15.314 38.0303 16.298C38.4743 17.27 38.6963 18.404 38.6963 19.7C38.6963 20.996 38.4743 22.136 38.0303 23.12C37.5983 24.092 36.9743 24.854 36.1582 25.406C35.3423 25.946 34.3643 26.216 33.2243 26.216ZM33.2243 24.506C33.9083 24.506 34.5143 24.314 35.0423 23.93C35.5823 23.546 36.0023 22.994 36.3023 22.274C36.6023 21.554 36.7523 20.696 36.7523 19.7C36.7523 18.704 36.6023 17.846 36.3023 17.126C36.0023 16.406 35.5823 15.854 35.0423 15.47C34.5143 15.086 33.9083 14.894 33.2243 14.894C32.5283 14.894 31.9163 15.086 31.3883 15.47C30.8603 15.854 30.4463 16.406 30.1463 17.126C29.8463 17.846 29.6963 18.704 29.6963 19.7C29.6963 20.696 29.8463 21.554 30.1463 22.274C30.4463 22.994 30.8603 23.546 31.3883 23.93C31.9163 24.314 32.5283 24.506 33.2243 24.506ZM12.468 49L17.112 36.4H19.2L23.808 49H21.792L20.712 45.922H15.564L14.484 49H12.468ZM16.104 44.41H20.172L18.138 38.668L16.104 44.41ZM25.5651 49V36.4H29.9751C30.9591 36.4 31.7751 36.568 32.4231 36.904C33.0711 37.228 33.5511 37.678 33.8631 38.254C34.1871 38.818 34.3491 39.46 34.3491 40.18C34.3491 40.864 34.1931 41.494 33.8811 42.07C33.5811 42.634 33.1071 43.084 32.4591 43.42C31.8111 43.756 30.9831 43.924 29.9751 43.924H27.4731V49H25.5651ZM27.4731 42.358H29.8851C30.7851 42.358 31.4271 42.166 31.8111 41.782C32.2071 41.386 32.4051 40.852 32.4051 40.18C32.4051 39.484 32.2071 38.944 31.8111 38.56C31.4271 38.164 30.7851 37.966 29.8851 37.966H27.4731V42.358ZM36.235 49V36.4H40.573C41.569 36.4 42.385 36.568 43.021 36.904C43.669 37.24 44.149 37.696 44.461 38.272C44.773 38.836 44.929 39.466 44.929 40.162C44.929 40.942 44.719 41.65 44.299 42.286C43.891 42.922 43.249 43.378 42.373 43.654L45.055 49H42.841L40.393 43.924H38.143V49H36.235ZM38.143 42.484H40.465C41.329 42.484 41.959 42.274 42.355 41.854C42.763 41.434 42.967 40.888 42.967 40.216C42.967 39.544 42.769 39.01 42.373 38.614C41.977 38.206 41.335 38.002 40.447 38.002H38.143V42.484Z" fill="white"/>
</svg>
