<svg width="16" height="16" viewBox="0 0 16 16" fill="none" xmlns="http://www.w3.org/2000/svg">
<g clip-path="url(#clip0_28_233)">
<path d="M8 0C3.58888 0 0 3.58888 0 8C0 12.4111 3.58888 16 8 16C12.4111 16 16 12.4111 16 8C16 3.58888 12.4111 0 8 0ZM8 15C4.14013 15 1 11.8599 1 8C1 4.14013 4.14013 1 8 1C11.8599 1 15 4.14013 15 8C15 11.8599 11.8599 15 8 15Z" fill="black"/>
<path d="M8.5 3.00049H7.5V8.20751L10.6465 11.354L11.3535 10.647L8.5 7.79344V3.00049Z" fill="black"/>
</g>
<defs>
<clipPath id="clip0_28_233">
<rect width="16" height="16" fill="white"/>
</clipPath>
</defs>
</svg>
