<svg width="20" height="21" viewBox="0 0 20 21" fill="none" xmlns="http://www.w3.org/2000/svg">
<path d="M18.1009 4.63635C17.9742 4.46179 17.7303 4.42303 17.5557 4.54953C17.3811 4.67603 17.3422 4.92001 17.4687 5.09457C18.0083 5.83875 18.4277 6.647 18.7207 7.49829C17.7861 6.4819 16.3873 5.64481 14.6864 5.09686C14.3666 4.19308 13.9673 3.38193 13.504 2.70749C13.2269 2.30405 12.9326 1.95401 12.6239 1.6586C13.5803 1.94165 14.4881 2.3811 15.3171 2.96735C15.4932 3.09186 15.7367 3.05005 15.8612 2.87396C15.9857 2.69803 15.9438 2.45435 15.7678 2.32999C14.0747 1.13278 12.0801 0.5 9.99939 0.5C7.32834 0.5 4.8172 1.54004 2.92862 3.42862C1.04004 5.3172 0 7.82834 0 10.4994C0 13.1706 1.04004 15.6819 2.92862 17.5708C4.8172 19.4597 7.32834 20.5 9.99939 20.5C12.6704 20.5 15.1819 19.4597 17.0708 17.5708C18.9597 15.6819 20 13.1706 20 10.4994C20 8.3775 19.3433 6.35022 18.1009 4.63635ZM17.9283 11.672V10.8897H19.1931C18.997 12.4086 17.6651 13.8168 15.5302 14.75C15.4219 14.602 15.2856 14.4758 15.1294 14.3791C15.2077 14.0394 15.2759 13.6912 15.3331 13.338H16.2634C17.1814 13.338 17.9283 12.5906 17.9283 11.672ZM16.9138 6.99216C18.2494 7.8703 19.0454 8.96466 19.1937 10.1091H17.9283V9.33682C17.9283 8.41809 17.1814 7.67087 16.2634 7.67087H15.3355C15.2435 7.10324 15.1233 6.55209 14.9774 6.02429C15.6883 6.29071 16.3406 6.61526 16.9138 6.99216ZM14.5441 7.67087H10.3897V6.14865C10.8403 6.01971 11.1996 5.67349 11.3469 5.23114C12.3016 5.31277 13.2208 5.48093 14.0755 5.7269C14.2703 6.33801 14.4283 6.99063 14.5441 7.67087ZM10.3897 1.31192C11.4981 1.48785 12.3351 2.38446 12.8607 3.14954C13.1955 3.63705 13.4946 4.20468 13.7512 4.83228C13.0038 4.64932 12.2095 4.51962 11.3797 4.4505C11.2599 3.95383 10.8783 3.55847 10.3897 3.41855V1.31192ZM10.6389 4.7836C10.6389 5.13623 10.352 5.4231 9.99939 5.4231C9.64676 5.4231 9.35989 5.13623 9.35989 4.7836C9.35989 4.43097 9.64676 4.1441 9.99939 4.1441C10.352 4.1441 10.6389 4.43097 10.6389 4.7836ZM9.60907 6.14865V7.67087H5.45578C5.57144 6.99078 5.72922 6.33817 5.92407 5.72705C6.77841 5.48108 7.69745 5.31293 8.65204 5.23114C8.79944 5.67365 9.15878 6.01971 9.60907 6.14865ZM9.60907 1.31192V3.41855C9.12048 3.55847 8.73901 3.95383 8.61908 4.4505C7.78961 4.51978 6.99539 4.64948 6.24817 4.83243C6.50482 4.20483 6.80389 3.63721 7.13882 3.14954C7.66449 2.38446 8.50113 1.48801 9.60907 1.31192ZM7.37076 1.66318C7.0639 1.95752 6.77109 2.30618 6.49536 2.70764C6.03195 3.38208 5.63263 4.19339 5.31296 5.09702C3.61557 5.64404 2.21924 6.4787 1.28464 7.49249C2.25128 4.69922 4.52499 2.51126 7.37076 1.66318ZM3.81302 13.338H4.66583C4.72275 13.6883 4.79095 14.0365 4.86984 14.3789C4.71344 14.4757 4.57733 14.6019 4.46884 14.7496C2.33459 13.8168 1.00296 12.4087 0.806885 10.8899H2.14813V11.6722C2.14813 12.5906 2.89505 13.338 3.81302 13.338ZM2.14813 9.33682V10.1091H0.806427C0.95459 8.96481 1.75064 7.8703 3.08624 6.99216C3.65921 6.61542 4.31137 6.29086 5.02228 6.02444C4.87656 6.55225 4.75647 7.10339 4.66446 7.67087H3.81302C2.89505 7.67087 2.14813 8.41809 2.14813 9.33682ZM1.28662 13.5124C1.99753 14.2833 2.98431 14.9583 4.19861 15.4835C4.19617 15.5179 4.19449 15.5525 4.19449 15.5874C4.19449 16.3705 4.83154 17.0076 5.61462 17.0076C5.66391 17.0076 5.71274 17.005 5.7608 17.0001C6.21811 17.9692 6.7662 18.7573 7.37595 19.3383C4.52957 18.4918 2.25479 16.3049 1.28662 13.5124ZM4.97513 15.5874C4.97513 15.2348 5.26199 14.9479 5.61462 14.9479C5.96725 14.9479 6.25397 15.235 6.25397 15.5874C6.25397 15.9401 5.96725 16.2269 5.61462 16.2269C5.26199 16.2269 4.97513 15.9401 4.97513 15.5874ZM9.60907 19.6879C8.42285 19.4966 7.31033 18.4379 6.48575 16.7077C6.62949 16.5957 6.75125 16.4566 6.84326 16.2982C7.73529 16.4781 8.66272 16.58 9.60907 16.602V19.6879ZM9.60907 15.8212C8.72742 15.7997 7.86407 15.7055 7.03354 15.5403C7.00851 14.7816 6.38611 14.1717 5.62256 14.1676C5.5603 13.8942 5.50476 13.6171 5.45715 13.338H9.60907V15.8212ZM3.81302 12.5573C3.3255 12.5573 2.92877 12.1602 2.92877 11.672V9.33682C2.92877 8.84869 3.3255 8.45151 3.81302 8.45151H14.9986H14.9995H15H16.2634C16.7509 8.45151 17.1477 8.84869 17.1477 9.33682V11.672C17.1477 12.1602 16.7509 12.5573 16.2634 12.5573H3.81302ZM14.3843 14.9479C14.4504 14.9479 14.5142 14.9582 14.5741 14.9768C14.5743 14.9768 14.5743 14.9768 14.5744 14.9769C14.8344 15.058 15.0238 15.301 15.0238 15.5874C15.0238 15.9401 14.7369 16.2269 14.3843 16.2269C14.0317 16.2269 13.7448 15.9401 13.7448 15.5874C13.7448 15.235 14.0317 14.9479 14.3843 14.9479ZM12.9654 15.5404C12.135 15.7057 11.2717 15.7997 10.3897 15.8212V13.338H14.5419C14.494 13.619 14.4386 13.896 14.3767 14.1676C13.613 14.1716 12.9903 14.7816 12.9654 15.5404ZM10.3897 19.6879V16.602C11.3365 16.58 12.2638 16.4782 13.1558 16.2985C13.2478 16.4569 13.3694 16.5959 13.5133 16.7079C12.6895 18.4381 11.5768 19.4967 10.3897 19.6879ZM12.6241 19.3382C13.2336 18.757 13.7816 17.9692 14.2381 17.0001C14.2862 17.005 14.335 17.0076 14.3843 17.0076C15.1674 17.0076 15.8044 16.3705 15.8044 15.5874C15.8044 15.5526 15.8028 15.5182 15.8002 15.484C17.0151 14.9585 18.0023 14.2831 18.7134 13.5119C17.7454 16.3044 15.4706 18.4913 12.6241 19.3382Z" fill="black"/>
</svg>
