<svg width="20" height="21" viewBox="0 0 20 21" fill="none" xmlns="http://www.w3.org/2000/svg">
<path d="M18.3952 13.6277C17.1707 13.6277 15.9684 13.4362 14.8291 13.0597C14.2708 12.8693 13.5845 13.044 13.2438 13.3939L10.995 15.0915C8.38703 13.6994 6.78057 12.0934 5.40745 9.50505L7.0551 7.31484C7.48318 6.88734 7.63672 6.26286 7.45276 5.67693C7.07464 4.53161 6.88255 3.3299 6.88255 2.1049C6.8826 1.21995 6.16266 0.5 5.27776 0.5H1.60484C0.719948 0.5 0 1.21995 0 2.10484C0 12.2481 8.25198 20.5 18.3952 20.5C19.2801 20.5 20.0001 19.7801 20.0001 18.8952V15.2325C20 14.3477 19.2801 13.6277 18.3952 13.6277Z" fill="#222222"/>
</svg>
