<svg width="240" height="48" viewBox="0 0 240 48" fill="none" xmlns="http://www.w3.org/2000/svg">
<rect width="48" height="48" rx="4" fill="white"/>
<path d="M28.6359 14.8373L26.3215 14.8335C23.7213 14.8335 22.041 16.6044 22.041 19.3454V21.4256H19.714C19.5129 21.4256 19.3501 21.5931 19.3501 21.7996V24.8137C19.3501 25.0203 19.5131 25.1875 19.714 25.1875H22.041V32.793C22.041 32.9996 22.2039 33.1668 22.4049 33.1668H25.441C25.6421 33.1668 25.8049 32.9994 25.8049 32.793V25.1875H28.5258C28.7268 25.1875 28.8897 25.0203 28.8897 24.8137L28.8908 21.7996C28.8908 21.7005 28.8524 21.6055 28.7842 21.5353C28.7161 21.4651 28.6232 21.4256 28.5267 21.4256H25.8049V19.6622C25.8049 18.8146 26.0016 18.3843 27.0764 18.3843L28.6355 18.3837C28.8364 18.3837 28.9992 18.2162 28.9992 18.0099V15.2111C28.9992 15.005 28.8366 14.8377 28.6359 14.8373Z" fill="#086CF9"/>
<rect x="64" width="48" height="48" rx="4" fill="white"/>
<path d="M96.75 18.8106C96.1059 19.0839 95.4148 19.2692 94.6887 19.352C95.4301 18.9268 95.9976 18.2525 96.2666 17.4515C95.5711 17.8452 94.8035 18.1311 93.9855 18.286C93.3305 17.6169 92.3988 17.2002 91.3653 17.2002C89.3827 17.2002 87.7752 18.7394 87.7752 20.6367C87.7752 20.9058 87.8069 21.1686 87.8682 21.42C84.885 21.2765 82.2397 19.908 80.4693 17.8284C80.1598 18.3352 79.9837 18.9258 79.9837 19.5561C79.9837 20.7488 80.618 21.8011 81.5803 22.4168C80.992 22.3979 80.4387 22.243 79.9542 21.9854V22.0283C79.9542 23.6932 81.1921 25.0826 82.8335 25.3989C82.5328 25.4764 82.2157 25.5193 81.8876 25.5193C81.6558 25.5193 81.4316 25.4973 81.2118 25.4554C81.6689 26.8219 82.9943 27.8156 84.5646 27.8428C83.3366 28.7642 81.7881 29.3119 80.1062 29.3119C79.8165 29.3119 79.531 29.2951 79.25 29.2647C80.8389 30.2417 82.7253 30.8113 84.7527 30.8113C91.3566 30.8113 94.9665 25.5738 94.9665 21.0315L94.9544 20.5865C95.6597 20.1048 96.2699 19.4996 96.75 18.8106Z" fill="#086CF9"/>
<rect x="128" width="48" height="48" rx="4" fill="white"/>
<path fill-rule="evenodd" clip-rule="evenodd" d="M143.667 23.9998C143.667 21.3589 143.667 20.0384 144.111 19.0014C144.667 17.7022 145.702 16.667 147.002 16.1106C148.039 15.6665 149.359 15.6665 152 15.6665C154.641 15.6665 155.961 15.6665 156.998 16.1106C158.298 16.667 159.333 17.7022 159.889 19.0014C160.333 20.0384 160.333 21.3589 160.333 23.9998C160.333 26.6408 160.333 27.9613 159.889 28.9982C159.333 30.2975 158.298 31.3327 156.998 31.8891C155.961 32.3332 154.641 32.3332 152 32.3332C149.359 32.3332 148.039 32.3332 147.002 31.8891C145.702 31.3327 144.667 30.2975 144.111 28.9982C143.667 27.9613 143.667 26.6408 143.667 23.9998ZM152 19.5883C149.564 19.5883 147.588 21.5636 147.588 24C147.588 26.4364 149.564 28.4118 152 28.4118C154.437 28.4118 156.412 26.4364 156.412 24C156.412 21.5636 154.437 19.5883 152 19.5883ZM152 26.7574C150.48 26.7574 149.243 25.5199 149.243 24C149.243 22.4791 150.48 21.2427 152 21.2427C153.52 21.2427 154.757 22.4791 154.757 24C154.757 25.5199 153.52 26.7574 152 26.7574ZM157.331 19.257C157.331 19.5817 157.067 19.8449 156.743 19.8449C156.418 19.8449 156.155 19.5817 156.155 19.257C156.155 18.9323 156.418 18.6691 156.743 18.6691C157.067 18.6691 157.331 18.9323 157.331 19.257Z" fill="#086CF9"/>
<rect x="192" width="48" height="48" rx="4" fill="white"/>
<path d="M224.329 32.3332V32.3325H224.333V26.22C224.333 23.2297 223.69 20.9263 220.194 20.9263C218.513 20.9263 217.385 21.8485 216.925 22.7228H216.876V21.2054H213.562V32.3325H217.013V26.8228C217.013 25.3721 217.288 23.9693 219.085 23.9693C220.855 23.9693 220.881 25.6249 220.881 26.9159V32.3332H224.329Z" fill="#086CF9"/>
<path d="M207.942 21.2061H211.397V32.3331H207.942V21.2061Z" fill="#086CF9"/>
<path d="M209.668 15.6665C208.563 15.6665 207.667 16.563 207.667 17.6679C207.667 18.7728 208.563 19.688 209.668 19.688C210.773 19.688 211.67 18.7728 211.67 17.6679C211.669 16.563 210.772 15.6665 209.668 15.6665V15.6665Z" fill="#086CF9"/>
</svg>
