<svg width="32" height="32" viewBox="0 0 32 32" fill="none" xmlns="http://www.w3.org/2000/svg">
<g clip-path="url(#clip0_28_494)">
<path d="M23.977 14.1643C23.9219 13.9946 23.7752 13.871 23.5986 13.8453L18.6386 13.1245L16.4204 8.62993C16.3414 8.46993 16.1784 8.36865 16 8.36865C15.8216 8.36865 15.6586 8.46996 15.5797 8.62993L13.3613 13.1245L8.40134 13.8453C8.22478 13.871 8.07809 13.9946 8.02297 14.1643C7.96781 14.334 8.01381 14.5203 8.14156 14.6448L11.7306 18.1434L10.8834 23.0835C10.8533 23.2593 10.9256 23.4371 11.0699 23.5419C11.2142 23.6468 11.4056 23.6606 11.5636 23.5776L16 21.2453L20.4362 23.5777C20.5048 23.6137 20.5797 23.6315 20.6543 23.6315C20.7515 23.6315 20.8483 23.6013 20.9299 23.542C21.0742 23.4371 21.1466 23.2594 21.1164 23.0835L20.269 18.1434L23.8584 14.6449C23.9862 14.5203 24.0322 14.334 23.977 14.1643ZM19.4382 17.6441C19.3277 17.7518 19.2773 17.9069 19.3034 18.059L20.0318 22.3058L16.2182 20.3008C16.0816 20.229 15.9184 20.229 15.7819 20.3008L11.968 22.3058L12.6962 18.059C12.7223 17.9069 12.6719 17.7518 12.5615 17.6441L9.47612 14.6365L13.74 14.0168C13.8927 13.9946 14.0246 13.8988 14.093 13.7604L16 9.89649L17.9069 13.7604C17.9753 13.8987 18.1072 13.9946 18.2599 14.0168L22.5238 14.6365L19.4382 17.6441Z" fill="#086CF9"/>
</g>
<circle cx="16" cy="16" r="15.7" stroke="#C8C8C8" stroke-width="0.6"/>
<defs>
<clipPath id="clip0_28_494">
<rect width="16" height="16" fill="white" transform="translate(8 8)"/>
</clipPath>
</defs>
</svg>
