<svg width="32" height="32" viewBox="0 0 32 32" fill="none" xmlns="http://www.w3.org/2000/svg">
<path d="M23.9407 15.8109C23.8147 15.6276 20.7867 11.3335 16 11.3335C11.8926 11.3335 8.2325 15.6029 8.07849 15.7849C7.97384 15.9089 7.97384 16.0909 8.07849 16.2156C8.2325 16.3976 11.8926 20.667 16 20.667C20.1074 20.667 23.7674 16.3976 23.9214 16.2156C24.0181 16.1009 24.0267 15.9349 23.9407 15.8109ZM16 20.0003C12.7073 20.0003 9.57652 16.8603 8.78119 16.0003C9.5752 15.1396 12.7026 12.0002 16 12.0002C19.8527 12.0002 22.5721 15.1356 23.2361 15.9823C22.4694 16.8149 19.3207 20.0003 16 20.0003Z" fill="#086CF9"/>
<path d="M16 13.3335C14.5293 13.3335 13.3333 14.5295 13.3333 16.0002C13.3333 17.4709 14.5293 18.6669 16 18.6669C17.4706 18.6669 18.6667 17.4709 18.6667 16.0002C18.6667 14.5295 17.4706 13.3335 16 13.3335ZM16 18.0003C14.8973 18.0003 13.9999 17.1029 13.9999 16.0002C13.9999 14.8976 14.8973 14.0002 16 14.0002C17.1026 14.0002 18 14.8976 18 16.0002C18 17.1029 17.1026 18.0003 16 18.0003Z" fill="#086CF9"/>
<circle cx="16" cy="16" r="15.7" stroke="#C8C8C8" stroke-width="0.6"/>
</svg>
